<svg xmlns="http://www.w3.org/2000/svg" viewBox="0 0 128 128"><defs><linearGradient id="a" x1="76.079" x2="523.48" y1="10.798" y2="365.95" gradientTransform="translate(1.11 14.613) scale(.24566)" gradientUnits="userSpaceOnUse"><stop offset="0" stop-color="#9013fe"/><stop offset="1" stop-color="#6610f2"/></linearGradient></defs><path fill="url(#a)" d="M14.985 27.712c-.237-6.815 5.072-13.099 12.249-13.099h73.54c7.177 0 12.486 6.284 12.249 13.099-.228 6.546.068 15.026 2.202 21.94 2.141 6.936 5.751 11.319 11.664 11.883v6.387c-5.913.564-9.523 4.947-11.664 11.883-2.134 6.914-2.43 15.394-2.202 21.94.237 6.815-5.072 13.098-12.249 13.098h-73.54c-7.177 0-12.486-6.284-12.249-13.098.228-6.546-.068-15.026-2.203-21.94-2.14-6.935-5.76-11.319-11.672-11.883v-6.387c5.913-.563 9.523-4.947 11.664-11.883 2.135-6.914 2.43-15.394 2.203-21.94z"/><path fill="#fff" d="M65.428 105.504c16.263 0 25.814-7.942 25.814-21.06 0-9.981-7.165-17.18-16.78-18.24v-.454c7.11-1.627 13.086-8.636 13.086-16.96 0-11.498-8.695-18.555-23.147-18.555H40.077v75.27zm-8.704-66.392h11.22c10.042 0 15.476 4.48 15.476 12.53 0 8.754-6.534 13.602-18.45 13.602h-8.246zm0 57.514V63.402h11.01c12.96 0 19.557 4.79 19.557 13.554 0 8.81-6.428 13.67-18.337 13.67z"/></svg>