<svg xmlns="http://www.w3.org/2000/svg" viewBox="0 0 128 128"><path fill="#333" d="M126.67 98.44c-4.56 1.16-7.38.05-9.91-3.75-5.68-8.51-11.95-16.63-18-24.9-.78-1.07-1.59-2.12-2.6-3.45C89 76 81.85 85.2 75.14 94.77c-2.4 3.42-4.92 4.91-9.22 3.71l24.19-32.63-22.81-29.8c4.34-.95 7.09.24 9.43 3.72 6.04 9.01 12.44 17.79 18.96 27.07 6.6-9.22 12.99-18.04 19.02-27.1 2.28-3.42 4.83-4.56 9.06-3.53L101.07 64l25.6 34.44z"/><path fill="#333" d="M1.33 61.74c.72-3.61 1.2-7.29 2.2-10.83 6-21.43 30.6-30.34 47.5-17.06C60.93 41.64 63.39 52.62 62.54 65H7.72c-.67 22.47 17.04 37.08 39.07 31.14 7.97-2.15 13.1-7.67 16.06-15.25 1.09-2.78 2.78-3.22 5.36-2.19-1.7 6.46-4.46 12.29-9.69 16.76-12.53 10.71-31.7 10.37-43.57-1.13C7.87 87.13 5.59 78.27 5.08 68.58c-.04-.72-.28-1.42-.43-2.13-.01-.71-.02-1.42-.02-2.14v-2.57zm6.44-2.32h49.08c-.24-17.32-11.39-29.26-26.34-29.26C15.79 30.16 4.6 41.72 7.77 59.42z"/></svg>