<svg xmlns="http://www.w3.org/2000/svg" viewBox="0 0 128 128"><path fill="#333" d="M44.422 0C40.2.023 37.34.56 37.34.56v.457c5.04 1.166 6.048 3.884 5.12 7.142-1.2 3.776-4.677 8.709-7.04 14.47-2.362 5.76-3.3 11.063-1.877 15.778C35.89 45.72 44.2 50.28 48.828 53.04c-2.96 4.24-7.06 10.56-9.7 16.4-3.68 8.14-5.52 15.14-5.52 21.18 0 12.7 7.06 21.92 15.12 28.6 6.98 5.78 14.72 9.38 14.72 9.38l.2-.38c-5.52-4.06-11.6-9.72-15.48-16.38-4.44-7.62-5.66-16.4-2.5-25.48 2.56-7.4 8.2-15.18 14.06-22.16 7.3-2.46 15.06-3.72 22.6-3.72 10.22 0 19.8 2.48 25.4 5.88 6.2 3.76 8.68 8.36 7.8 13.48-1.92 11.4-18.6 20.5-35.88 20.5-5.56 0-10.78-.88-15.12-2.72-4.14-1.76-6.48-3.44-7.9-5.86l-.42.18c.84 3.08 3.56 6.18 7.62 8.66 4.46 2.72 10.4 4.42 17.1 4.42 12.78 0 26.06-5.28 34.42-13.84 7.28-7.44 10.98-17.06 7.36-25.5-3.16-7.38-12.04-12.62-23.68-15.04-6.3-1.3-13.24-1.68-20.04-1.04-2.68.26-5.32.64-7.9 1.14 1.78-2.2 3.52-4.38 5.06-6.42 6.62-8.82 10.28-16.02 10.84-22.82.56-6.8-1.86-12.02-8.38-14.56-1.86-.72-4.16-1.08-6.66-1.04l-1.44.02zM63.3 3.84c5.62 0 8.54 2.46 8.6 6.96.02 4.76-2.78 12.06-8.58 19.78-2.66 3.54-5.94 7.4-9.58 11.38-2.4-2.34-4-5.22-4.44-8.74-.54-4.46 1.34-10.46 5.22-17.04C57.8 10.02 60.04 5.44 63.3 3.84z"/></svg>