<svg xmlns="http://www.w3.org/2000/svg" viewBox="0 0 128 128"><path fill="#6181B6" d="M64 33.039C30.26 33.039 2.906 46.901 2.906 64S30.26 94.961 64 94.961 125.094 81.099 125.094 64 97.74 33.039 64 33.039zM48.103 70.032c-1.458 1.364-3.077 1.927-4.86 2.507-1.783.581-4.052.461-6.811.461h-6.253l-1.733 10h-7.301l6.515-34H41.7c4.224 0 7.305 1.215 9.242 3.432 1.937 2.217 2.519 5.364 1.747 9.337-.395 2.032-1.1 3.888-2.586 5.263zM69.407 73l2.173-11.29c.413-2.149.195-3.24-.652-4.016-.847-.775-2.252-.776-4.034-.776h-5.544L57.77 73h-7.293l6.515-34h7.293l-1.661 8.632h6.943c4.128 0 6.907.897 8.338 2.758 1.43 1.86 1.669 4.577 1.036 8.168L76.7 73h-7.293zm35.335-8.232c-.395 2.032-1.1 3.888-2.586 5.263-1.458 1.364-3.077 1.927-4.86 2.507-1.783.581-4.052.461-6.812.461h-6.253l-1.732 10h-7.301l6.514-34h14.041c4.224 0 7.305 1.215 9.242 3.432 1.937 2.217 2.519 5.364 1.747 9.337z"/><path fill="#fff" d="M38.652 43.632h-5.6l-3.414 17.736h5.6c2.612 0 4.553-.86 5.824-2.579 1.271-1.72 2.174-3.94 2.71-6.663.483-2.632.324-4.616-.84-5.838-1.164-1.222-2.794-2.656-4.28-2.656zm56.092 0h-5.6l-3.414 17.736h5.6c2.612 0 4.553-.86 5.824-2.579 1.271-1.72 2.174-3.94 2.71-6.663.483-2.632.324-4.616-.84-5.838-1.164-1.222-2.794-2.656-4.28-2.656z"/></svg>