<svg xmlns="http://www.w3.org/2000/svg" viewBox="0 0 128 128"><defs><linearGradient id="a" x1="6" x2="235" y1="33" y2="344" gradientTransform="translate(0 .937) scale(.3122)" gradientUnits="userSpaceOnUse"><stop offset="0" stop-color="#41d1ff"/><stop offset="1" stop-color="#bd34fe"/></linearGradient><linearGradient id="b" x1="194.651" x2="236.076" y1="8.818" y2="292.989" gradientTransform="translate(0 .937) scale(.3122)" gradientUnits="userSpaceOnUse"><stop offset="0" stop-color="#ffbd4f"/><stop offset="1" stop-color="#ff9640"/></linearGradient></defs><path fill="url(#a)" d="M124.766 19.52 67.324 122.238c-1.187 2.121-4.234 2.157-5.473.064L3.089 19.553c-1.352-2.283.652-5.087 3.248-4.543l61.124 12.824a3.216 3.216 0 0 0 1.308-.002l59.77-12.808c2.584-.554 4.594 2.223 3.227 4.496z"/><path fill="url(#b)" d="M91.462 1.632 48.841 9.881a1.6 1.6 0 0 0-1.282 1.468l-2.713 45.836a1.6 1.6 0 0 0 1.93 1.665l11.852-2.589a1.6 1.6 0 0 1 1.89 1.883l-3.518 17.717a1.6 1.6 0 0 0 2.014 1.858l7.313-2.082a1.6 1.6 0 0 1 2.015 1.857l-5.593 26.59c-.357 1.7 1.906 2.622 2.89 1.177l.658-.966 36.357-69.894a1.6 1.6 0 0 0-1.59-2.327l-12.208 1.643a1.6 1.6 0 0 1-1.793-1.958l8.067-38.31a1.6 1.6 0 0 0-1.896-1.917z"/></svg>